<svg id="Layer_1" data-name="Layer 1" xmlns="http://www.w3.org/2000/svg" viewBox="0 0 1145.86 1060.83"><defs><style>.cls-1{fill:#2a4997;}.cls-2{fill:#592b49;}.cls-3{fill:#5e3c16;}.cls-4{fill:#472e11;}.cls-5{fill:#291221;}.cls-6{fill:#263364;}.cls-7{fill:#76c8da;}.cls-8{fill:#da2286;}.cls-9{fill:#2a1221;}.cls-10{fill:#df871e;}</style></defs><path class="cls-1" d="M604.43,1263.64c-29.7-1.34-58.4-7.5-85.52-19.57-73.87-32.87-123.25-88-143.68-166.32-21.73-83.22-4-159.1,51-225.34,36.37-43.83,83.22-71.81,139.1-82.88,79-15.67,150.41,2.09,212.5,53.73,44,36.58,71.49,83.65,83.47,139.55a243.31,243.31,0,0,1-1.41,108.48c-.88,3.68-1.07,7.58-3.09,10.94-2.29-5.17-6.43-8.85-10.32-12.73l-77.21-77.21c-2-2-3.76-4.09-6.5-5-9-12.4-20.7-20.95-36-23.16-23.35-3.37-46.65-4.69-68.71,6.46a7.4,7.4,0,0,1-2.45.64c-2.66,0-4.18-2-5.73-3.65-10-10.77-21.74-19.72-31.76-30.46a28.49,28.49,0,0,0-6.17-4.47c-10.35-13.25-22.87-23.14-40.21-24.82-7.83-.77-15.7-1.69-23.58-1.73-26.25-.13-52.49-.07-78.73,0-8.54,0-8.91.38-8.92,9.12q0,96.33,0,192.67c0,9,.36,9.2,9.39,9.37,9.59.18,19.19-.63,28.75.5,2.15.89,3.72,2,.56,3.62-1.93,1-4.18.66-6.31.67-9.53,0-19.07,0-28.82.06.77,2.62,2.72,3.73,4.17,5.18q63.72,63.79,127.42,127.6C598.52,1257.79,602.52,1259.68,604.43,1263.64Z" transform="translate(-187.14 -203.14)"/><path class="cls-2" d="M1070.32,860.65a224.61,224.61,0,0,1-84.26-19.2C906.36,805.89,856,745.51,838.32,660c-24.87-120.6,43.41-241.2,158.73-283.41a246.41,246.41,0,0,1,98.6-15A250,250,0,0,1,1328.42,562.6a211.27,211.27,0,0,1,4.39,35.45c-3.82-1.53-4.37-5.77-7-8.4-24.53-24.18-48.82-48.62-73.18-73-2.11-2.11-4.2-4.27-7.39-4.71-9.35-.84-18.71-.08-28-.41-5.13-.19-6.6,2.34-6.58,7,.09,16.37,0,32.74,0,49.11,0,1.28.08,2.56,0,3.83-.25,3.07,1,7.06-2.37,8.7-3.53,1.75-5.63-2-8-3.9-11.55-9.49-24.65-13.95-39.63-12.51a20.74,20.74,0,0,1-6.34-.18c-3.28-.81-5.31-3.36-7.55-5.59q-20.94-20.88-41.84-41.79c-1.92-1.91-3.57-4.29-6.58-4.71-12.56-.24-25.11.1-37.65-.17-4.92-.1-7.78,2-10.2,6.08-7.84,13.15-15.85,26.2-23.91,39.22-1,1.62-1.76,3.43-3.53,4.42-3.71-.57-4.18-4.39-6.36-6.52-11.59-11.34-23.12-22.74-34.35-34.43a3.58,3.58,0,0,0-3.74-1.21c-4.3-7.25-11-8.06-18.65-7.67-9.56.49-19.15.07-29.46.15,1.07,3.42,2.9,5.94,4.57,8.47,17,25.82,33.35,52.07,50.61,77.72,3.74,5.57,4,9.81.11,15.52-19.93,29.25-38.84,59.17-58.39,88.67-1,1.56-2.54,2.92-2.57,5.76,8,.55,16,0,24,.3,6.75.29,13.62-1.2,20.27,1.1,1.28,3.32-1.66,3.11-3.13,3.13-14,.21-28.08.75-42.1-.24a.86.86,0,0,1-.79-.55c1.57,2.24,4,4.1,6,6.2q69.36,69.33,138.69,138.69C1069,857.38,1071.27,858.13,1070.32,860.65Z" transform="translate(-187.14 -203.14)"/><path class="cls-3" d="M417.44,701.79c-11,.18-21.68-1.83-32.22-4.36-87.45-21-149.06-73-181.09-156.9-27.36-71.72-21.45-142.69,16.15-209.77,34.78-62,87.5-102.31,156.47-119.86,124.45-31.66,252,36.13,296.11,156.56a245,245,0,0,1,13.57,58.41c.2,1.89.68,3.79.11,5.71-4,.85-5.53-2.63-7.63-4.71q-43-42.81-85.9-85.79c-2.55-2.55-4.88-5.46-8.88-5.81-11.93-.65-23.85-.09-35.77-.29-4.4-.07-6,2-6,6.22,0,8.51.17,17-.05,25.54-.13,5.1,2.22,6.69,7,6.61,8.94-.14,17.88-.07,26.82,0,2.76,0,5.56-.21,8.17,1,2.48,3.3-.66,3.35-2.38,3.69-3.57.69-7.23.35-10.85.34-8.28,0-16.57.16-25.75-.17,5,5.25,9.84,9.6,14.15,14.47,1.55,1.76,5.05,3.58,1.62,6.77-4.13,1.53-8.44.86-12.67,1-3.94.11-5.92,1.8-5.89,5.8,0,1.49-.06,3-.06,4.47V560.1c0,1.28.09,2.56,0,3.84-.23,4.55,1.81,6.54,6.44,6.5,9.16-.09,18.31-.06,27.47,0,3,0,6-.23,8.83.87,1.77,1,2,2.18.11,3.21s-4.13,1-6.26,1c-10.67,0-21.34.09-32,0-8.47-.07-9.65-1.19-9.67-9.66-.08-39.47-.18-79,.1-118.42,0-7.41-2.12-12.83-7.42-18.05-28.72-28.31-57.13-56.95-85.66-85.44-2.08-2.08-3.83-4.67-7.05-5.27-3.56-3.06-7.63-4.08-12.36-4q-16.64.39-33.28,0c-4.94-.11-7.82,1.53-9.66,6.32-22.23,57.72-44.78,115.32-67.18,173-6.49,16.71-13.13,33.35-19.43,50.13-2.31,6.15-2.08,6.54,4.38,6.57,11.1.06,22.19,0,33.28,0,2.76,0,5.57-.32,8.19.91,1.94,4.24-1.85,3.37-3.54,3.51-5.73.45-11.49.2-17.24.18-8.93,0-17.87.21-26.73-.19L340,621.33q36.38,36.38,72.71,72.79C414.76,696.24,418.12,697.83,417.44,701.79Z" transform="translate(-187.14 -203.14)"/><path class="cls-4" d="M417.44,701.79c-1.09-2.42-3.24-3.92-5-5.71q-58-58.11-116.1-116.17c-1.62-1.62-3.61-3-4.7-5.45,1.49-1.16,3.23-.64,4.78-.64,13.21-.06,26.42,0,39.62-.07,2,0,4.34.82,5.87-1.41-1.48-2.08-.54-4.13.19-6.09,5.06-13.59,9.62-27.37,14.84-40.9,2.87-7.45,4.13-8.4,12.31-8.42,26.67,0,53.33.12,80-.11,6.76-.06,10.64,2.37,13,8.78,4.79,13.24,10.1,26.28,15,39.48,1.85,5,4.67,7,9.95,6.95,11.3-.21,22.61,0,33.91-.09,6.94-.05,7.45-.79,4.77-7.52Q505,512.12,484,459.84,461.66,404,439.37,348.11c-1.2-3-3.66-6-1.63-9.64.34-.85.17-2.55,1.73-1.72a15.17,15.17,0,0,1,3.28,3q46.13,46.11,92.3,92.18a12.93,12.93,0,0,1,4.1,10.11c-.13,41.35-.08,82.7-.08,124.05,0,7.68,0,7.69,7.64,7.69,11.3,0,22.59.05,33.89,0,2,0,4.38,1,5.69-1.61-2.66-3.36-1.81-7.34-1.82-11.1q-.09-74.23,0-148.48c0-12.09,0-12-11.88-12.21-3.55,0-7.33.74-10.4-2-4.15-5.72-9.74-10.05-14.5-15.19-1.71-1.84-3.52-3.59-5.52-5.62,1.89-1.5,3.62-1,5.17-1,10.64-.05,21.28,0,31.92-.05,2,0,4.31.71,6-1.25-1.46-12.51-.65-25-.39-37.58a4.81,4.81,0,0,1,1.58-3.4c3.22.09,4.68,2.75,6.58,4.65q43.93,43.82,87.79,87.7c1.79,1.79,3.26,4,5.78,4.94,1.1,1.95,1,4.12,1.08,6.23,3.41,73.73-20,137.65-71.42,190.6-36.84,37.92-81.82,61.3-134,70.88-19.42,3.57-38.95,4.16-58.58,3.64A13.71,13.71,0,0,1,417.44,701.79Z" transform="translate(-187.14 -203.14)"/><path class="cls-5" d="M1247.06,510.93c2.44,0,3.73,1.85,5.21,3.33q37.92,37.9,75.9,75.73c2.42,2.41,3.09,5.39,4.64,8.06,3.06,89.41-31.27,161.23-102.34,215.2-33,25.08-70.78,39.65-111.77,45.64a203.45,203.45,0,0,1-48.38,1.76c-3.81-3.69-7.67-7.33-11.42-11.08q-66.29-66.24-132.57-132.49A46.79,46.79,0,0,0,921,713c1.56-3,3.25-2.15,4.55-2.16,12.58-.07,25.17,0,37.75-.08,2,0,4.35.87,5.84-1.43-.79-2.64.92-4.48,2.15-6.41,12.27-19.25,24.5-38.52,37.06-57.58,3.81-5.78,6-5.9,9.63,0,11.12,17.71,23,35,33.64,52.93,4.62,7.78,9.65,12,19.23,11.06,8.87-.9,17.91-.12,26.87-.22,5.57-.06,5.78-.35,2.69-5.2-11.44-18-23.56-35.57-35.34-53.37-8.25-12.45-16.5-24.9-24.88-37.26-2.68-3.95-3.35-7.7-.66-11.85,19.18-29.51,37.52-59.56,57.22-88.73a12.07,12.07,0,0,1,1.89-1.82,15.07,15.07,0,0,0,1.23-1.17,39,39,0,0,1,3.46,2.78q23.27,23.19,46.46,46.46a40.2,40.2,0,0,1,2.77,3.45c-.21.27-.43.53-.63.8a16.11,16.11,0,0,1-3.5,2.2c-27.83,10.19-39.31,32-41.38,59.74-1.19,16-.41,31.87,5.18,47.33,8.65,23.92,30.47,39.55,55.82,38.94,13.22-.31,24.2-5.95,33.73-14.86,2.69-2.53,5.17-7.48,9-5.9s2.08,6.84,2.24,10.53c.31,7.17.58,7.63,7.7,7.7,6.18.06,12.36,0,18.55,0,3.92,0,5.93-1.82,5.92-5.82,0-2.13,0-4.26,0-6.39q0-87.63,0-175.26C1245.35,517.85,1244.44,514.07,1247.06,510.93Z" transform="translate(-187.14 -203.14)"/><path class="cls-6" d="M614.57,933.55c.43-.57,1.08-.88,1.59-.35,12.27,12.92,26.6,23.75,38.16,37.39.39,3.2-2.36,4.4-4.15,5.92-19.93,16.92-19.86,56.82,13.43,69.6,17.61,6.77,35.9,10.8,54.08,15.41,3.73.94,7.45,1.89,10.73,4,7.87,5.14,9,13.88,2.58,20.78a22.68,22.68,0,0,1-12.13,6.75c-9,1.92-18.09,2.78-27.21.29s-16.13-7.89-19.85-16.65c-2.09-4.92-5-6.18-10-5.14-7.72,1.61-15.59,2.41-23.39,3.56-6.22.91-6.9,2.29-4.52,8.08,7,16.92,19.78,28,36.81,33.15,23.4,7.12,47.13,7.12,70.38-1.34,22.88-8.32,36.12-32,30.91-54.59-3.06-13.25-12-21.26-23.72-26.7a143.78,143.78,0,0,0-27.24-9.16c-10-2.39-19.86-5-29.8-7.43a42.31,42.31,0,0,1-14-6c-7-4.85-6.76-13.87.44-18.55,15.06-9.78,42.39-4.85,52.37,9.66,2,3,4.18,3.85,7.51,3.13,7.3-1.57,14.66-2.78,22-4.18,7.58-1.44,7.62-1.64,5.1-9.23a18,18,0,0,1-.7-2.78,2.73,2.73,0,0,1,.4-1.8c.4-.56,1-.93,1.56-.45,1.14.95,2.19,2,3.25,3.06q41.75,41.73,83.52,83.45c2.53,2.52,4.6,5,4.12,8.78-2.46,12-7,23.3-12.12,34.26-32.5,69-85,115.18-158.09,137.48-26.77,8.17-54.21,11-82.13,9.67a29.44,29.44,0,0,1-7.21-5Q530.68,1191.93,464,1125.36c-1.19-1.19-2.31-2.47-3.43-3.67.92-2.13,2.64-1.23,3.93-1.24,10-.09,20,0,30-.08,2.06,0,4.29.64,6.12-1-1.17-7.85-.45-15.74-.51-23.61-.13-16-.07-32,0-48,0-10.29.91-11.28,11.43-11.15a465.94,465.94,0,0,0,56.77-2.6c26.42-2.92,47.55-23.52,52-49.8,2.7-15.91.19-30.94-5.3-45.75a20.94,20.94,0,0,1-.89-3A2.49,2.49,0,0,1,614.57,933.55Z" transform="translate(-187.14 -203.14)"/><path class="cls-7" d="M614.57,933.55l.56,1.26a1.88,1.88,0,0,0,.78,1.2,83,83,0,0,1,7.41,37.26c-1.09,25.33-11.66,45-34.7,57-10.09,5.26-21.2,6.07-32.25,7-16.17,1.27-32.37,1-48.57,1-5.94,0-6,.07-6,6,0,22.81,0,45.62-.05,68.43,0,2.25.83,4.73-1.08,6.71q-18.23-.11-36.45-.22c-5.82,0-5.87-.07-5.87-6.08q0-101.41,0-202.82c0-6.19,0-6.25,6.41-6.24,28.58.06,57.16-.13,85.73.37,10.36.18,20.88.28,31,3.38,12.74,3.89,22.67,11.51,30.35,22.25C612.71,931.25,613.66,932.38,614.57,933.55Z" transform="translate(-187.14 -203.14)"/><path class="cls-7" d="M765.64,989.91c.91,3.49,3.08,6.56,3.5,10.64-1.87,1.32-4.24,1.43-6.42,1.86-8.78,1.72-17.58,3.31-26.38,4.93-5.05.94-5.1.95-7.26-3.46a22.87,22.87,0,0,0-16.45-13,59.37,59.37,0,0,0-29.1.83,17.23,17.23,0,0,0-6.32,3c-5.29,4.25-5.15,11.41.47,15.16a32.16,32.16,0,0,0,9.9,4.39l35.3,9a194.62,194.62,0,0,1,26.59,9.06c31.09,13,29.75,47.65,17.06,64.94-9,12.33-21.2,19.64-35.82,22.9a117,117,0,0,1-57.62-1.2c-20.55-5.76-35.29-18.44-42.25-39.16-1.57-4.67-1.51-4.79,3.42-5.58,10.51-1.7,21-3.29,31.56-4.93,2.67-.41,4.89-.54,5.94,3,4,13.34,13.69,19.47,27,20.6,8.58.73,17.06.24,25.08-3.27,4.47-2,7.88-5,9.11-10,1.39-5.68-.43-10.1-5.5-12.94-3.59-2-7.58-2.81-11.51-3.76-17.6-4.27-35.3-8.13-52.2-14.86-8.92-3.55-16.61-8.65-22.09-16.7-10.28-15.14-8.85-37.71,3.46-51.83,2.79-3.19,6.1-5.92,9.17-8.86,13.47-7.68,28-10.61,43.44-10.43,9.57.11,19.14.05,28.57,1.89,16.16,3.14,29.35,10.86,38,25.34.16.4.32.8.49,1.2A4.67,4.67,0,0,0,765.64,989.91Z" transform="translate(-187.14 -203.14)"/><path class="cls-8" d="M1099.9,509.7q-.12.56-.21,1.11a5.5,5.5,0,0,1-1,1.42q-29,45.18-58.09,90.32c-2.23,3.45-1.82,5.84.36,9.1q31.66,47.26,63,94.74c.58.88,1.38,1.65,1.4,2.88-1.11,1.8-3,1.15-4.58,1.15-12.58.06-25.16-.11-37.73.12-3.89.07-6.18-1.24-8.25-4.51-12-19.1-24.3-38.08-36.48-57.1-1.57-2.44-3.16-4.86-5.3-8.17l-43.91,68.6H921.69c-.53-2.41,1.27-3.84,2.36-5.49,20.3-31,40.52-62,61.05-92.83,2.82-4.22,2.78-7,0-11.18-18.59-28.28-36.86-56.77-55.23-85.19-.89-1.38-2.31-2.57-1.71-5.11h9.28c9.38,0,18.77.34,28.12-.13,5.77-.28,9.86,1.1,12.08,6.68a10.84,10.84,0,0,0,1.94,2.45c2.32.58,3.28,2.53,4.39,4.32,8.61,13.86,17.33,27.66,25.94,41.53,3.68,5.92,3.87,6,7.91.38,1.11-1.52,1.92-3.34,3.94-4,7.81-12.62,15.58-25.25,23.44-37.85,2.69-4.31,4.22-10,8.41-12.54s10-.77,15-.82C1079.07,509.5,1089.49,509.66,1099.9,509.7Z" transform="translate(-187.14 -203.14)"/><path class="cls-8" d="M1247.06,510.93q-.06,39.69-.11,79.38,0,55.7,0,111.39c0,1.49-.09,3,0,4.48.18,2.94-1,4.31-4.08,4.29q-14.08-.11-28.16,0c-2.86,0-3.65-1.38-3.6-4,.09-5.06,0-10.13,0-15.81-2.83.82-3.75,2.88-5.08,4.32-9.83,10.61-21.79,17.09-36.27,18.25-22.08,1.77-38.71-8-51.44-25.31-7.51-10.23-11.14-22-12.59-34.48-1.92-16.43-1.76-32.81,3.17-48.81,6.42-20.85,19.75-35,40.89-41.31.8-.6,1.88-.41,2.7-1h.07c6.13.18,12.12-1.18,18.38-.59,12.44,1.17,22.75,6.34,31.9,14.42,1.41,1.25,2.39,3,4.53,3.57,2-1.62,1.08-3.91,1.09-5.86.07-18.93,0-37.87,0-56.8,0-1.49,0-3,0-4.47,0-1.7.66-3,2.52-3q17.22,0,34.44.2C1246.05,509.87,1246.55,510.56,1247.06,510.93Z" transform="translate(-187.14 -203.14)"/><path class="cls-9" d="M1021.77,560.82l-7.86,12.94-34.32-55.2c.19-.72.07-2,1.26-1.5a11.39,11.39,0,0,1,2.85,2.51q17.4,17.37,34.79,34.76C1020.31,556.15,1022.3,557.83,1021.77,560.82Z" transform="translate(-187.14 -203.14)"/><path class="cls-10" d="M437.74,338.47c3.93,12.18,9.18,23.85,13.92,35.72q38.5,96.51,77.2,193c.15.39.34.78.48,1.18,1.61,4.43,1.25,5-3.78,5.06-4,.08-8.11,0-12.16,0-9.81,0-19.63,0-29.44,0-5.47,0-5.49-.08-7.41-5.09q-8.37-21.78-16.73-43.58c-2.34-6.12-2.35-6.15-8.56-6.15q-42.24,0-84.48,0c-5.4,0-5.54,0-7.36,5-5.91,16.22-11.7,32.48-17.54,48.72-16.82.75-33.62.21-50.79.32.57-6.21,3.34-11.09,5.3-16.14q31.33-80.76,63-161.41,11.14-28.58,22.18-57.22c1.95-5,2-5,7.33-5.05,13,0,26,.28,39-.16C432.92,332.51,436,334,437.74,338.47Z" transform="translate(-187.14 -203.14)"/><path class="cls-10" d="M562.15,398.37c6.39.08,12.78.1,19.16.25,4.45.11,4.72.43,4.92,4.72.08,1.7,0,3.41,0,5.11q0,81.84,0,163.68c-7,1.19-14,.39-21,.53s-14.07,0-21.1,0c-2.62,0-4-.94-3.89-3.71.06-1.28,0-2.56,0-3.84q0-79.59,0-159.2c0-.85,0-1.7,0-2.55.18-4.59.23-4.71,4.68-4.82C550.64,398.44,556.39,398.43,562.15,398.37Z" transform="translate(-187.14 -203.14)"/><path class="cls-10" d="M586.39,334.29c0,11.64-.06,23.28-.17,34.92,0,2.05.64,4.27-1,6.06-13.2,0-26.41,0-39.61-.12-5.26,0-5.34-.11-5.37-5.33q-.08-16,0-31.95c0-4.8.15-5,4.46-5,12.57-.09,25.13,0,37.7,0C583.91,332.83,585.39,332.9,586.39,334.29Z" transform="translate(-187.14 -203.14)"/><path class="cls-2" d="M1152.52,562.38a2.44,2.44,0,0,1-2.7,1A2.44,2.44,0,0,1,1152.52,562.38Z" transform="translate(-187.14 -203.14)"/><path class="cls-2" d="M1098.72,512.23a1.49,1.49,0,0,1,1-1.42A1.35,1.35,0,0,1,1098.72,512.23Z" transform="translate(-187.14 -203.14)"/><path class="cls-1" d="M615.91,936a1,1,0,0,1-.78-1.2Z" transform="translate(-187.14 -203.14)"/><path class="cls-1" d="M765.64,989.91a1.22,1.22,0,0,1-.83-1.32Z" transform="translate(-187.14 -203.14)"/><path class="cls-6" d="M501.79,970.8c0-8.53-.05-17,0-25.58,0-4.77.13-4.91,4.44-5,14.5-.17,29-.3,43.44,1.06,9.68.92,18.15,4.39,23.88,12.91,10.36,15.41,4.06,39.9-17.12,44.73a87.87,87.87,0,0,1-19,2.35c-10.23.07-20.46.15-30.69.13-4.85,0-4.93-.13-5-5.06C501.74,987.85,501.79,979.33,501.79,970.8Z" transform="translate(-187.14 -203.14)"/><path class="cls-5" d="M1208.57,637.77c-.73,10.55-1.37,20.93-7.06,30.25-7,11.44-17.08,16.37-30.21,14.56-12.6-1.74-20.18-10-23.81-21.44a80.9,80.9,0,0,1-1.28-44.78c3.3-13.07,11-22.48,25.2-24.92,15.44-2.65,27.71,6.57,32.6,18.84C1207.56,619.18,1207.84,628.55,1208.57,637.77Z" transform="translate(-187.14 -203.14)"/><path class="cls-4" d="M409.5,390.91c10.64,28.65,21.28,57.3,32.15,86.55H376.4L407.86,391Z" transform="translate(-187.14 -203.14)"/></svg>