<svg id="Layer_1" data-name="Layer 1" xmlns="http://www.w3.org/2000/svg" viewBox="0 0 387.59 387.6"><defs><style>.cls-1{fill:#fff;}</style></defs><path class="cls-1" d="M638.25,864.33c-2.51,12-4.86,23.06-7.14,34.14-2.6,12.68,2.36,18.81,15.2,18.82H883.79c12.51,0,16.9-4.35,16.9-16.77q0-134.52,0-269c0-29.6-19.24-48.81-48.81-48.83s-59.33,0-89,0h-5.63a5.84,5.84,0,0,1-.18-1.23c2.25-11.09,4.56-22.16,6.76-33.26,2.46-12.43-2.48-18.46-15.06-18.46q-109.49,0-219,0c-12.21,0-16.68,4.4-16.68,16.47q0,134.77,0,269.54c0,29.25,19.33,48.59,48.52,48.62q35.25,0,70.49,0Z" transform="translate(-513.1 -529.68)"/><path d="M638.25,864.33h-6.12q-35.24,0-70.49,0c-29.19,0-48.52-19.37-48.52-48.62q0-134.78,0-269.54c0-12.07,4.47-16.47,16.68-16.47q109.49,0,219,0c12.58,0,17.52,6,15.06,18.46-2.2,11.1-4.51,22.17-6.76,33.26a5.84,5.84,0,0,0,.18,1.23h5.63q44.49,0,89,0c29.57,0,48.81,19.23,48.81,48.83q0,134.52,0,269c0,12.42-4.39,16.77-16.9,16.77H646.31c-12.84,0-17.8-6.14-15.2-18.82C633.39,887.39,635.74,876.34,638.25,864.33Zm-99.38-308.9c-.08,1.55-.19,2.54-.19,3.52q0,129.49,0,259c0,12.66,8.29,20.75,21.15,20.78q44.25.09,88.49,0h29.37C697.32,744,716.8,649.91,736.36,555.43ZM875.24,891.48V886q0-127.53,0-255.08c0-15.07-7.68-22.66-22.82-22.67-31.5,0-63,.15-94.5-.16-5.29-.05-7,1.56-8,6.52Q725.63,733,701,851.3c-2,9.73-6,13-15.79,13-7,0-13.91,0-21,0-1.9,9.35-3.68,18.09-5.52,27.15Z" transform="translate(-513.1 -529.68)"/><path class="cls-1" d="M538.87,555.43H736.36c-19.56,94.48-39,188.58-58.65,283.32H648.34q-44.25,0-88.49,0c-12.86,0-21.14-8.12-21.15-20.78q-.06-129.5,0-259C538.68,558,538.79,557,538.87,555.43Zm91.24,106.76c0,9.45-.16,18.43,0,27.4.19,7.92,5.48,13.17,12.75,13.15s12.63-5.25,12.69-13.19c.15-21.16.52-42.33-.14-63.46-.75-24.16-19.29-42.25-43.17-43.34-22.78-1-43.67,15.9-45.4,39.55-1.67,22.86-.87,45.93-.52,68.9.12,8.3,8.24,13.27,16.11,11.12,5.54-1.52,9.06-6.48,9.15-13.39.11-8.8,0-17.61,0-26.74Z" transform="translate(-513.1 -529.68)"/><path class="cls-1" d="M875.24,891.48H658.71c1.84-9.06,3.62-17.8,5.52-27.15,7.06,0,14,0,21,0,9.83,0,13.78-3.29,15.79-13Q725.52,733,749.91,614.59c1-5,2.72-6.57,8-6.52,31.5.31,63,.14,94.5.16,15.14,0,22.81,7.6,22.82,22.67q0,127.54,0,255.08Zm-60.7-78.31c10-9.91,19.69-19.34,29.22-28.89,3.88-3.89,5-8.66,2.9-13.79s-6.11-7.9-11.66-7.91q-38.24-.09-76.48,0a11.94,11.94,0,0,0-11.41,7.52c-3.84,8.43,2,17.41,11.88,17.67,12.82.35,25.66.12,38.48.14h5.26c.46.73.93,1.45,1.39,2.17-1.61.93-3.49,1.57-4.77,2.83Q778.05,814,756.9,835.3a111,111,0,0,0-8,8.23A12.59,12.59,0,0,0,757,864.1c4.87.7,8.64-1.54,12-4.91,9.11-9.22,18.28-18.37,28.77-28.9,1.22,2,1.93,3.83,3.19,5.12q12.26,12.48,24.73,24.76c3.71,3.65,8.15,5.09,13.27,3.34a12.22,12.22,0,0,0,8.55-10.15c.83-4.87-1.36-8.69-4.73-12C833.54,832.19,824.38,823,814.54,813.17ZM797.18,749.7h17.47l1,0c7.75-.36,13.23-5.77,13-12.87s-5.6-12.24-13.07-12.31q-18.21-.18-36.44,0c-7.77.06-13.23,5.4-13.22,12.6s5.35,12.38,13.25,12.57C785.19,749.81,791.19,749.69,797.18,749.7Z" transform="translate(-513.1 -529.68)"/><path d="M630.11,662.19H591.65c0,9.13.09,17.94,0,26.74-.09,6.91-3.61,11.87-9.15,13.39-7.87,2.15-16-2.82-16.11-11.12-.35-23-1.15-46,.52-68.9,1.73-23.65,22.62-40.59,45.4-39.55,23.88,1.09,42.42,19.18,43.17,43.34.66,21.13.29,42.3.14,63.46-.06,7.94-5.43,13.18-12.69,13.19s-12.56-5.23-12.75-13.15C630,680.62,630.11,671.64,630.11,662.19Zm-.36-25.86c1.08-10.19.7-19.42-8.88-25.38a19.31,19.31,0,0,0-21.55,1c-6.92,5.17-9.51,14.3-6.82,24.33Z" transform="translate(-513.1 -529.68)"/><path d="M814.54,813.17c9.84,9.82,19,19,28.2,28.16,3.37,3.34,5.56,7.16,4.73,12a12.22,12.22,0,0,1-8.55,10.15c-5.12,1.75-9.56.31-13.27-3.34q-12.46-12.28-24.73-24.76c-1.26-1.29-2-3.12-3.19-5.12C787.24,840.82,778.07,850,769,859.19c-3.33,3.37-7.1,5.61-12,4.91a12.59,12.59,0,0,1-8.1-20.57,111,111,0,0,1,8-8.23q21.2-21.22,42.45-42.38c1.28-1.26,3.16-1.9,4.77-2.83-.46-.72-.93-1.44-1.39-2.17h-5.26c-12.82,0-25.66.21-38.48-.14-9.88-.26-15.72-9.24-11.88-17.67a11.94,11.94,0,0,1,11.41-7.52q38.25-.11,76.48,0c5.55,0,9.56,2.83,11.66,7.91s1,9.9-2.9,13.79C834.23,793.83,824.58,803.26,814.54,813.17Z" transform="translate(-513.1 -529.68)"/><path d="M797.18,749.7c-6,0-12,.11-18,0-7.9-.19-13.24-5.36-13.25-12.57s5.45-12.54,13.22-12.6q18.23-.15,36.44,0c7.47.07,12.89,5.33,13.07,12.31s-5.29,12.51-13,12.87l-1,0Z" transform="translate(-513.1 -529.68)"/><path class="cls-1" d="M629.75,636.33H592.5c-2.69-10-.1-19.16,6.82-24.33a19.31,19.31,0,0,1,21.55-1C630.45,616.91,630.83,626.14,629.75,636.33Z" transform="translate(-513.1 -529.68)"/></svg>